# xmcd
#
# Track frame offsets:
#	223
#	18316
#	42255
#	69029
#	91105
#	120368
#	139644
#	166191
#	187664
#	210218
#	249382
#
# Disc length: 3683 seconds
#
# Revision: 1
# Processed by: cddbd v1.5.1PL0 Copyright (c) Steve Scherf et al.
# Submitted via: audiograbber 1.83.01
#
DISCID=740e610b
DTITLE=Mel Brown - Mister Groove
DYEAR=2001
DGENRE=
TTITLE0=Aint no Woman (Like the one I got)
TTITLE1=Break And Run
TTITLE2=But not for me
TTITLE3=Ghetto Child
TTITLE4=What it is
TTITLE5=I've been trying
TTITLE6=Viva Tirado
TTITLE7=Red Bones
TTITLE8=I want a little girl
TTITLE9=Leave it Alone
TTITLE10=What's Happening Brother
EXTD=
EXTT0=
EXTT1=
EXTT2=
EXTT3=
EXTT4=
EXTT5=
EXTT6=
EXTT7=
EXTT8=
EXTT9=
EXTT10=
PLAYORDER=
